<svg version="1.0" xmlns="http://www.w3.org/2000/svg" preserveAspectRatio="xMidYMid meet" style="display:none">
<defs>

  <g id="landslide" transform="translate(0.000000,300.000000) scale(0.100000,-0.100000)" fill="currentColor" stroke="none">
    <path d="M904 2733 c-67 -65 -71 -85 -45 -221 32 -168 47 -218 76 -240 23 -18 29 -19 90 -6 76 16 111 32 141 66 46 50 94 178 94 250 0 21 -9 56 -20 78 -28 54 -126 101 -225 108 l-70 4 -41 -39z"/>
    <path d="M122 2713 l-62 -4 2 -1242 3 -1242 1118 -3 1119 -2 -7 52 c-9 66 -61 181 -104 230 -18 20 -62 55 -97 78 -95 60 -157 130 -208 235 -54 109 -73 192 -85 351 -13 180 -50 248 -184 335 -91 59 -259 125 -367 143 -246 43 -295 61 -372 140 -56 57 -129 196 -153 291 -9 33 -20 130 -24 216 -6 95 -15 169 -24 190 -14 35 -81 99 -102 99 -15 0 -141 64 -195 99 -37 24 -58 30 -120 34 -41 2 -103 2 -138 0z"/>
    <path d="M1500 2079 c-25 -6 -78 -8 -119 -7 l-75 3 -28 -46 c-17 -27 -31 -66 -35 -97 -5 -49 -4 -52 20 -61 15 -6 64 -15 109 -22 46 -6 98 -14 115 -16 41 -6 104 29 156 86 50 55 52 107 6 145 -33 28 -67 31 -149 15z"/>
    <path d="M2775 1845 c-5 -2 -27 -6 -47 -10 -49 -8 -68 -28 -68 -73 0 -19 -6 -51 -12 -70 -12 -31 -11 -36 11 -53 35 -28 92 -41 129 -28 42 14 59 57 64 154 l3 80 -35 2 c-19 1 -39 0 -45 -2z"/>
    <path d="M1995 1701 c-27 -16 -58 -38 -69 -50 -17 -19 -18 -23 -3 -54 11 -22 16 -60 16 -112 -1 -106 2 -108 151 -103 136 4 179 20 205 75 26 55 13 96 -50 160 -47 47 -159 113 -190 113 -5 0 -32 -13 -60 -29z"/>
    <path d="M2471 1358 c-73 -40 -147 -123 -171 -192 -50 -145 -61 -220 -39 -270 8 -16 33 -34 73 -51 85 -37 154 -84 217 -149 68 -71 99 -81 193 -61 100 21 149 48 170 92 37 79 30 281 -15 405 -28 77 -78 132 -137 153 -26 10 -83 32 -127 51 -113 47 -116 47 -164 22z"/>
  </g>

</defs>
</svg>