<svg xmlns="http://www.w3.org/2000/svg" width="590" height="60" xmlns:v="https://vecta.io/nano"><defs><clipPath id="A"><path d="M0 647h1050V0H0z"/></clipPath></defs><g clip-path="url(#A)" transform="matrix(1.3333 0 0 -1.3333 0 862.66667)" fill="#7b383d" fill-rule="evenodd"><path d="M329.575 613.955v33.811h-13.882v-44.719l-.326-.113-.954 1.34-26.538 38.243c-2.304 3.311-5.257 5.692-9.519 5.635-3.641-.05-6.5-1.936-8.53-4.759l-28.762-40.392c-.079-.111-.116-.252-.233-.51.466-.033.867-.085 1.266-.085l14.749-.021c.846-.005 1.376.212 1.898.942l18.59 25.808c.28.388.576.766.984 1.306l11.545-16.369c-.644-.037-1.097-.086-1.548-.086-5.348-.005-10.7.007-16.048-.022-.479-.002-1.167-.098-1.403-.415l-8.204-11.186h1.815l89.502-.02c1.063-.002 1.732.28 2.392 1.163 2.428 3.24 4.965 6.396 7.458 9.588.163.208.301.441.587.861zm-268.07 33.931H48.157c-6.7 0-13.402.108-20.097-.029-7.029-.148-13.492-2.132-18.798-6.964-8.911-8.115-8.949-22.362-.155-30.829 5.171-4.981 11.465-7.465 18.521-7.605 10.55-.21 21.109-.055 31.664-.052.186 0 .373.033.655.061v27.087H19.494l1.961-2.485 6.339-7.521c.434-.488 1.265-.873 1.919-.88l16.281-.039v-4.647c-1.273 0-2.511-.003-3.75 0-4.385.01-8.772-.044-13.156.059-3.612.084-6.911 1.132-9.564 3.761-4.269 4.233-3.906 11.43.76 15.259 2.601 2.135 5.614 3.159 8.927 3.188l22.121.076c.515.004 1.227.153 1.51.505l8.663 11.055m340.314-17.443l11.536-16.371-1.536-.087c-5.349-.004-10.697.016-16.046-.031-.542-.004-1.292-.229-1.588-.624l-7.585-10.39c-.077-.103-.099-.247-.181-.462h52.702l-3.283 4.798-24.574 35.375c-2.309 3.311-5.312 5.631-9.579 5.5-3.516-.108-6.316-1.927-8.284-4.661l-28.843-40.498c-.079-.111-.114-.252-.227-.509.417-.032.773-.078 1.128-.078l14.887-.021c.848-.005 1.376.219 1.897.945l18.675 25.919c.251.349.517.689.901 1.195m-217.373 17.379h-13.929v-24.814l-6.493 5.455-20.013 16.864c-2.148 1.807-4.614 2.676-7.452 2.574-3.179-.114-5.603-2.232-5.618-5.412l-.017-39.543c0-.134.069-.267.125-.469h13.932v24.852l6.288-5.241 20.55-17.111c2.226-1.84 4.817-2.728 7.75-2.586 2.652.13 4.433 1.664 4.804 4.295.081.573.137 1.153.137 1.728l.004 38.241c0 .334-.038.671-.068 1.167m5.657-11.517h1.786l29.063-.073c4.793-.064 8.901-1.876 11.357-6.227 3.489-6.184-.174-13.622-7.513-15.41-1.528-.373-3.135-.56-4.71-.583l-15.038-.026c-.279 0-.555.045-.937.078v16.653h-13.872V602.48c.417-.025.835-.074 1.254-.074l30.367.04c8.708.157 16.15 3.35 21.574 10.435 6.36 8.307 6.592 24.406-8.035 31.774-4.198 2.114-8.678 3.159-13.347 3.212l-21.98.038c-.858.003-1.387-.256-1.909-.958l-7.104-9.314c-.28-.365-.539-.748-.956-1.328m-79.798 11.509v-1.694-22.16c0-6.268-2.548-9.296-8.791-9.609-4.929-.246-9.905-.112-14.829.262-5 .376-7.556 3.448-7.578 8.471l-.009 23.028v1.675H65.187v-1.544l-.021-23.028c-.15-10.639 5.47-16.88 14.829-19.255 3.648-.923 7.484-1.325 11.255-1.496 5.668-.257 11.369-.268 16.949 1.108 4.958 1.222 9.482 3.203 12.653 7.469 2.516 3.381 3.457 7.28 3.486 11.405l.014 24.475c0 .278-.061.554-.101.893z"/></g></svg>