<svg xmlns="http://www.w3.org/2000/svg" width="140" height="128" xmlns:v="https://vecta.io/nano"><defs><clipPath id="A"><path d="M0 647h1050V0H0z"/></clipPath></defs><g clip-path="url(#A)" transform="matrix(1.3333 0 0 -1.3333 0 151)"><path d="M56 100l.048-.166-2.857-3.314-1.992-2.27-2.717-3.161-1.867-2.141-2.684-3.131-1.898-2.174-2.747-3.193-1.929-2.207-2.654-3.097-1.928-2.207-2.655-3.096-1.928-2.208-2.655-3.095-2.021-2.306-2.531-2.967-2.024-2.303-2.715-3.162-1.403-1.655-1.768-2-1.622 3.937c-.647 1.716-1.121 3.483-1.357 5.307l-.426 3.64c-.087 1.898-.018 3.802.349 5.674l.989 4.407c.705 2.492 1.804 4.825 3.137 7.046 1.324 2.206 2.86 4.252 4.644 6.104l2.416 2.326 2.402 2.031c1.855 1.391 3.803 2.642 5.85 3.735a45.53 45.53 0 0 0 6.478 2.841c2.073.723 4.173 1.359 6.342 1.73l4.566.706 4.239.355L56 100M41.134 29.853c-7.64 1.817-14.479 5.149-20.351 10.446.139.054.234.096.331.127l6.399 2.014 8.696 2.75 9.566 3.061c.307.101.647.298.825.552.564.803 1.059 1.653 1.578 2.488l5.111 8.215 1.567 2.547c.277.445.169.851-.116 1.229s-.742.485-1.233.335l-2.77-.843-10.541-3.341-4.115-1.312 2.037 3.278 3.32 5.238 4.374 6.961 3.261 5.172 4.646 7.414 3.26 5.174 4.678 7.503c.132.211.284.298.526.24.256-.06.517-.099.772-.16l3.409-.83c2.435-.653 4.798-1.516 7.081-2.584 2.691-1.258 5.267-2.722 7.648-4.511.713-.535 1.409-1.092 2.146-1.665l-2.629-.807-8.068-2.556-6.446-2.01-8.646-2.776c-.291-.096-.61-.304-.777-.552-.704-1.046-1.355-2.126-2.021-3.196l-4.668-7.508-1.589-2.585c-.26-.429-.127-.83.151-1.19.288-.373.729-.485 1.194-.342l2.812.861 10.579 3.364 4.086 1.283-2.503-3.939-4.621-7.379-3.284-5.208-4.763-7.6-3.763-5.946-4.649-7.42-2.5-3.992m5.463-.97l1.184 1.39 1.962 2.238 2.717 3.16 1.959 2.239 2.686 3.13 1.897 2.174 2.686 3.129 1.349 1.535 2.59 3.035 1.993 2.27 2.683 3.129 1.898 2.174 2.687 3.129 1.898 2.174 2.747 3.194 1.93 2.207 3.109 3.641 2.604 2.973 3.109 3.641c.235.276.483.539.762.848.405-.726.8-1.379 1.142-2.059 1.259-2.509 2.224-5.124 2.789-7.883.375-1.841.6-3.7.612-5.577.008-1.156-.069-2.315-.177-3.467-.099-1.036-.25-2.072-.447-3.094a27.48 27.48 0 0 0-2.527-7.37 40.42 40.42 0 0 0-2.532-4.272c-.872-1.288-1.824-2.54-2.878-3.683-1.599-1.736-3.306-3.371-5.201-4.805s-3.879-2.747-5.987-3.849c-1.366-.713-2.751-1.405-4.185-1.957-1.935-.745-3.904-1.414-5.893-1.991-2.409-.697-4.875-1.174-7.386-1.368-1.516-.117-3.033-.287-4.552-.34-1.265-.045-2.534.026-3.799.08-1.106.047-2.209.143-3.429.225m18.431 74.942l3.035 4.351c.404.594.522 1.273.141 1.919a1.38 1.38 0 0 1-.731.575c-1.29.381-2.253-.241-3.073-1.15-.712-.79-1.386-1.613-2.074-2.425l-1.952-2.292c-.103-.116-.304-.223-.45-.211l-3.61.343c-.044.003-.089.003-.135.003l-5.46.077c-1.48-.023-2.967-.097-4.436-.273-2.23-.268-4.459-.575-6.665-.995a47.33 47.33 0 0 1-5.31-1.345c-2.16-.678-4.31-1.413-6.396-2.288-1.85-.773-3.651-1.695-5.392-2.694-1.827-1.047-3.598-2.208-5.319-3.424-2.022-1.43-3.872-3.077-5.599-4.855-1.527-1.573-2.913-3.258-4.191-5.037-1.377-1.916-2.515-3.973-3.488-6.113-1.019-2.241-1.835-4.562-2.258-6.998-.213-1.231-.401-2.467-.53-3.708-.114-1.091-.217-2.195-.17-3.286.068-1.577.265-3.147.426-4.719.197-1.92.729-3.766 1.357-5.58.784-2.263 1.728-4.455 3.023-6.484l2.007-3.204-3.88-4.533-2.64-3.004c-.364-.415-.416-1-.121-1.473.259-.417.798-.588 1.32-.423l6.738 2.113 3.809 1.182c.145.043.384.008.487-.089 1.641-1.536 3.423-2.889 5.268-4.165 2.275-1.573 4.663-2.958 7.174-4.105a67.4 67.4 0 0 1 5.654-2.285c1.913-.672 3.882-1.187 5.828-1.767.191-.058.388-.094.585-.138-1.011-1.498-2.05-2.94-2.977-4.452-.376-.614-.23-1.783.594-1.999.692-.18 1.373-.342 2.112.12.94.588 1.518 1.48 2.25 2.239.512.532.962 1.122 1.438 1.685.325.385.686.743.965 1.157.393.579.906.261 1.367.228.599-.04 1.192-.176 1.792-.226 1.592-.132 3.185-.3 4.781-.347 1.547-.044 3.099.036 4.651.073.682.015 1.368.032 2.047.096 1.393.127 2.79.255 4.176.445 1.468.201 2.933.432 4.384.728 1.503.306 3.001.656 4.473 1.082 1.586.46 3.158.981 4.7 1.566 2.375.897 4.708 1.897 6.904 3.182 1.518.888 3.054 1.757 4.499 2.754 1.497 1.032 2.936 2.163 4.327 3.34 1.205 1.017 2.359 2.106 3.437 3.255 2.092 2.226 3.917 4.658 5.442 7.316 1.233 2.143 2.236 4.384 2.988 6.738.563 1.76 1.025 3.547 1.239 5.386a60.82 60.82 0 0 1 .267 2.955c.057.802.141 1.611.08 2.408-.125 1.674-.302 3.347-.525 5.012-.325 2.409-1.058 4.717-2.002 6.941-.651 1.535-1.43 3.027-2.275 4.465-.932 1.591-2.006 3.099-3.042 4.682l2.482 2.848 3.104 3.647a4.4 4.4 0 0 1 .585.861c.212.427.032.817-.278 1.122-.299.294-.665.421-1.096.284l-6.647-2.104-3.386-1.066c-.122-.038-.314.004-.417.082-1.441 1.092-2.843 2.238-4.314 3.29-2.249 1.606-4.654 2.971-7.169 4.111-1.997.906-4.048 1.695-6.103 2.462-2.346.874-4.781 1.451-7.225 1.989-.182.041-.362.088-.6.145" fill="#7C97CD" fill-rule="evenodd"/></g></svg>